<?xml version="1.0" encoding="UTF-8"?>
<svg version="1.1" viewBox="0 0 1888 944" width="472" height="236" xmlns="http://www.w3.org/2000/svg">
<path transform="translate(912,326)" d="m0 0h13l13 2 15 5 14 9 9 9 10 15 11 14 5 12 1 5v10l-4 11-8 7-9 3h-8l-9-5-6-8-2-6-8-6-7-8-3-4v-2l-15 2-10 4-5 5-5 8-4 10-1 4v8l5 3 19 4 6 4 7 8 4 8 5 5 5 4 4 9 1 10-3 11-5 8-9 7-10 2h-8l-12-3-11-5h-13l-15 5-10 7-6 9-4 10-3 15 1 6 3 3 9 4 10 2h16l19-3 21-7 13-7 12-9 10-10 6-10 10-27 18-52 7-14 5-5 6-4 3-1h8l11 4 8 9 4 11 6 3 6 9v11l-6 20-15 43-14 36-5 2h7l8-6 7-8 5-10 22-65 15-43 7-10 8-5 4-1h7l9 3 7 6 4 7 3 12h2l1-3 7 9 1 2v10l-8 27-11 32-12 33-1 2 6-4 7-8 7-16 14-40 14-39 7-12 10-10 11-6 8-3 10-2h14l15 3 12 5 4-2 7-6 9-3h10l9 3 5 5 5 8 3 7 9 8 2 4 1 7-3 15-10 29-12 35-11 27-2 2-4 1h8l10-6 7-7 6-10 11-30 19-54 6-14 7-9 7-7 10-6 13-4 6-1h9l12 2 12 5 12 9 17-49 13-36 7-13 7-6 7-3h8l10 4 7 8 4 11 8 4 4 7 1 2v12l-5 16-17 50-13 37-14 40-15 40-3 6-8 2h9l10-6 8-9 8-14 9-24 15-44 8-16 6-9 11-11 11-7 12-5 16-3h11l14 2 13 5 10 7 9 9 9 15 9 12 5 13 1 9 3-3 7-21 13-36 21-60 9-24 6-10 8-7 6-2h8l10 4 6 7 5 12 8 6 4 9v7l-6 21-8 20-1 3 17 6 11 7 8 8 8 14 9 11 5 11 1 5v14l-4 15-15 42-6 14-3 3-7 1 10-1 8-5 6-5 9-13 8-16 6-14 5-8 6-4 10-2 9 2 7 5 4 7 3 8 8 6 3 6v7l-4 13-7 15-9 17-10 13-10 11-12 9-15 7-11 3-9 1h-11l-17-4-10-6-5-5-5-6-7-9-8-9-5-9-3-8-1-6v-10l4-17 17-50 3-13-1-1-7 8-8 10-5 11-12 34-15 43-10 28-6 11-6 5-7 3h-7l-9-3-5-4-2-4-7 1-14 5-18 4-9 1h-24l-23-5-14-6-12-9-6-6-10 9-14 9-13 5-14 3h-15l-13-4-11-6-6-5-4-1-14 9-14 5-10 2h-16l-12-4-11-7-5-4-5 1-12 7-15 5-11 2h-17l-15-4-12-6-5-4-4-1-13 8-16 6-6 1h-15l-13-5-10-6-5-4-5 2-9 7-20 12-23 10-13 5-4 6-14 39-9 17-8 10-7 7-13 8-11 5-12 3-10 1h-9l-14-2-11-4-10-6-7-6-11-14-9-10-7-12-3-10v-16l4-14 6-9 9-10 15-10 14-6 18-6 3-3-6-2-6-4v2h2l-1 3-21 10-17 6-17 4-16 2h-20l-17-3-12-3-18-8-11-7-10-10-7-9-11-12-9-14-5-14-2-11v-14l3-17 6-18 9-15 11-12 9-7 14-7 12-4-2-5-5-10-3-10-1-10 3-20 5-13 6-11 9-11 10-9 11-7 13-6 15-4zm312 140v2h2v-2zm0 3v5l2-1-1-4zm173 1-4 10-6 9-8 20-10 27-5 15-4 2h-8l-2-4-1 3 2 3h15l6-4 7-10 6-13 11-31 3-12-1-15zm183 4-7 3v2l-4 2-5 6-2 6 4 1 10-5 4-5 2-9zm-356 2-3 6-6 8-16 47-6 18-3 8-1 1h-10l1 2 3 1h10l8-6 6-8 6-15 14-44 2-10v-5l-2-1-2 1zm305 53 1 3 5 1-3-3zm-1 3 1 2zm8 1m8 14-6 9-4-1-3-3h-2l-1-2 1 4 5 5 7 6 9 3 10 1h10l13-2 16-6 14-9 2-4-12 3-11 3-7 1h-17l-12-3zm-17 2m-349 13 1 2z" fill="#60B38B"/>
<path transform="translate(226,128)" d="m0 0h26l16 1 24 4 14 4 20 8 23 12 14 10 11 9 17 14h4l10-10 14-11 14-10 21-12 11-5 21-7 23-6 14-1h25l25 2 25 5 18 6 27 13 16 11 16 13 10 9 7 6 9 11 10 13 15 27 10 21 8 20 7 24 3 19 1 11v20l-2 17-3 14-8 27-12 27-10 21-11 18-11 14-8 6-9 4-7 1h-38l-16-3-9-4-7-7-2 1-7-8-11-12-11-14-10-11-5-4v-2h-2l-3-3 2 5v3l5 1 1 2-5 11-7 14-14 22-7 12-6 11-11 17-15 26-15 25-8 10-5 5-10 5-3 1h-10l-10-4-5-4-4-5-1-4-5-5-9-12-16-28-13-22-17-29-14-24-15-26-24-40-3-2-2 7-5 8-9 15-10 15-12 20-11 16-8 10-7 6-13 4h-28l-8-1 2-1v-2l-4-2v-4h-2l1-2 2-1-12-1-2-1 18 22 9 9 7 8 11 13 9 11 13 14 7 8 9 10 7 8 11 12 9 10 7 8 14 15 7 8 13 14 7 8 15 16 9 10 13 13 7 8 5 6 3 2 5-1 6-5 7-8 14-15 5-5 7-8h2l2-4 9-9 9-11 7-7 7-9h2l2-4 5-5 11-12 7-8 16-16 9-11 15-16 12-14 10-11 10-13 12-13 7-7 5-2h21l8 4 7 6 7 14 6 11 3 8v7l-4 10-6 9-13 15-9 10-8 10-12 13-7 8-12 13-9 10-12 13-7 8-15 16-11 12-7 8-8 8-7 8-15 16-16 17-2 3h-2l-2 4-16 17-9 10-7 7-1 2h-2v2l-10 8-5 2h-20l-8-4-7-6-9-11-10-11-7-8-9-10-11-14-9-9-7-8-8-8-7-8-14-15-7-8-11-12-12-13-9-11-12-14-13-14-9-11-7-7-7-8-13-15-12-13-7-8-12-14-7-8-12-14-15-16-7-8-8-8-9-11-10-12-7-10-4-11v-12l4-10 4-5 7-4 62-2 47-1 4-1 15-23 23-35 15-24 20-30 9-10 8-4 3-1h11l10 3 8 6 8 10 12 21 17 29 26 44 15 27 10 16 13 23 12 20 1 3h3l2-6 17-28 16-27 12-21 13-21 12-20 12-18 7-6 6-2h20l10 6 10 10 10 13 13 16 9 10 9 11 6 7 5 2h15l5-5 7-12 12-28 6-19 4-22v-24l-5-25-6-18-7-13-9-13-11-11-15-10-14-7-24-9-12-3h-47l-23 4-16 6-13 7-13 10-15 14-8 8-7 10-8 11-5 6-9 6-4 1h-18l-8-5-12-16-14-18-9-10-9-8-14-9-14-7-15-6-17-4-10-1h-15l-24 1-25 5-16 7-16 10-11 9-13 12-12 16-10 17-6 13-3 11-2 12-2 31 1 19 3 13v15l-6 12-7 6-5 3-4 1h-15l-8-3-9-8-1-3h3l-6-3-9-13-5-13-5-23-2-19v-13l3-25 8-31 7-19 10-19 8-14 9-11 12-14 10-10 14-11 13-10 23-13 21-8 20-6 14-3zm76 269 1 3h2l1 2-1-4zm254 53v2l2-1z" fill="#60B38B"/>
<path transform="translate(1724,456)" d="m0 0 9 1 5 3 1 7-3 7-2 2-1-1-7 8-8 10-5 11-12 34-15 43-10 28-6 11-6 5-7 3h-7l-9-3-5-4-2-4-7 1-14 5-18 4-9 1h-24l-23-5-14-6-12-9-6-6-10 9-14 9-13 5-14 3h-15l-13-4-11-6-6-5-4-1-14 9-14 5-10 2h-16l-12-4-11-7-5-4-5 1-12 7-15 5-11 2h-17l-15-4-12-6-5-4-4-1-13 8-16 6-6 1h-15l-13-5-10-6-5-4-5 2-9 7-20 12-23 10-13 5-4 6-14 39-9 17-8 10-7 7-13 8-11 5-12 3-10 1h-9l-14-2-11-4-10-6-7-6-8-10 1-2 8 4 12 3 16 2 20-1 16-6 11-6 11-9 8-10 11-21 15-41 5-3 16-6 18-8 14-8 11-8 6-4 6 1 13 8 10 4 7 1h8l14-3 12-5 11-7 5 1 8 6 10 4 12 3 7 1h9l16-3 15-6 10-5 5 1 10 7 16 5 12 1 15-2 15-6 10-7h6l8 6 7 4 15 4 7 1h9l16-4 12-5 13-9 5-4 2-3 5 2 10 9 12 6 13 4 26 4h14l16-2 19-5 11-4 5 2 8 7 6 2 9-1 8-4 6-8 7-16 15-43 15-42 7-18 7-9 8-7z" fill="#BDDFCD"/>
<path transform="translate(638,539)" d="m0 0 4 5 4 10v7l-4 10-6 9-13 15-9 10-8 10-12 13-7 8-12 13-9 10-12 13-7 8-15 16-11 12-7 8-8 8-7 8-15 16-16 17-2 3h-2l-2 4-16 17-9 10-7 7-1 2h-2v2l-10 8-5 2h-20l-8-4-7-6-9-11-2-3 5 2 10 5 6 1h13l10-4 22-22 7-8 12-14 7-7 7-8 7-7 7-8 7-7 7-8 12-13 9-10 8-8 7-8 9-9 9-11 12-13 7-8 11-12 12-13 9-10 12-14 7-9h2l2-4 7-8 8-15z" fill="#BDDFCD"/>
<path transform="translate(220,192)" d="m0 0h45l14 2 16 5 16 8 11 7 11 8 14 14 7 9-1 2-10-10-15-10-16-8-15-6-17-4-10-1h-15l-24 1-25 5-16 7-16 10-11 9-13 12-12 16-10 17-6 13-3 11-2 12-2 31 1 19 3 13v15l-6 12-7 6-5 3-4 1h-15l-8-3-9-8-1-3h3l-2-2 12 2 10-2 11-6 7-8 3-8v-19l-3-17-1-26 3-22 4-15 7-17 7-12 13-18 10-10 14-11 9-6 15-8 19-7z" fill="#BDDFCD"/>
<path transform="translate(1501,349)" d="m0 0 8 3 4 5 2 5v12l-5 16-17 50-13 37-14 40-15 40-3 6-8 2h7l1 2h-14l-5-3v-8l12-36 19-55 15-43 11-31 13-40z" fill="#BDDFCD"/>
<path transform="translate(517,192)" d="m0 0h48l19 4 14 5 13 7 15 10 12 11 10 11-1 2-8-7-13-8-12-6-24-9-12-3h-47l-23 4-16 6-13 7-13 10-15 14-8 8-7 10-8 11-5 6-9 6-4 1h-18l-8-5-12-16h3l9 4h16l8-3 8-7 14-20 14-15 9-9 17-12 16-8 20-7z" fill="#BDDFCD"/>
<path transform="translate(739,275)" d="m0 0 2 2 7 21 4 16 3 25v20l-2 17-3 14-8 27-12 27-10 21-11 18-11 14-8 6-9 4-7 1h-38l-16-3-9-4-7-7-2 1-3-5 9 1h63l8-3 9-7 8-11 8-13 10-18 11-24 5-12 8-25 4-19 1-9 1-42-2-15-2-11z" fill="#BDDFCD"/>
<path transform="translate(1854,516)" d="m0 0h2l3 5 6 4 4 7v7l-4 13-7 15-9 17-10 13-10 11-12 9-15 7-11 3-9 1h-11l-17-4-10-6-5-5-5-6-2-4 9 1 9 2 9 1h14l12-3 12-5 11-7 12-11 10-13 8-13 10-21 5-13z" fill="#BDDFCD"/>
<path transform="translate(940,458)" d="m0 0 8 6 5 8 2 7-1 11-4 10-6 7-9 5-7 1h-8l-12-3-11-5h-13l-15 5-10 7-6 9-4 10-3 15v6l-5-3-7-8-3-8-1-12 3-15 6-11 8-8 13-6 10-2h10l17 6 3 1h18l10-6 7-10 4-15z" fill="#BDDFCD"/>
<path transform="translate(551,439)" d="m0 0h2l2 10 5 1 1 2-5 11-7 14-14 22-7 12-6 11-11 17-15 26-15 25-8 10-5 5-10 5-3 1h-10l-10-4-5-4-4-5-1-5 11 1h11l12-6 8-9 9-15 15-26 10-15 13-21 16-27 15-25zm5 11v2l2-1z" fill="#BDDFCD"/>
<path transform="translate(1631,459)" d="m0 0 5 5 5 10 3 12v3h2l-2 8-9 26-8 16-8 10-5 2 1-3-19 6-11 2h-17l-12-3-12-5-4 7-2 4-1-3-4-1v-2l-4-1-2-2-2-3v-9l2-6 4-1 7 1 1 1 17 3h14l12-2 13-5 9-6 10-10 8-13 5-13 1-5 1-18z" fill="#BDDFCD"/>
<path transform="translate(954,586)" d="m0 0h5l6 7 6 5 2 4-4-1v2h2l-1 3-21 10-17 6-17 4-16 2h-20l-17-3-12-3-18-8-11-7-10-10-3-4 1-2 18 8 21 5 22 3h16l19-3 18-4 18-7z" fill="#BDDFCD"/>
<path transform="translate(300,393)" d="m0 0 5 1 3 5 1 9-3 6-11 19-10 15-14 23-11 16-8 10-7 6-13 4h-28l-8-1 2-1v-2l-4-2v-4h-2l1-2 2-1-4-2 33-1 9-3 8-6 7-9 12-18 11-17 7-11 10-15 9-15zm2 4 1 3h2l1 2-1-4z" fill="#BDDFCD"/>
<path transform="translate(1294,434)" d="m0 0 7 6 6 7 2 9-3 15-10 29-12 35-11 27-2 2-4 1 6 1v1l-16 1-3-4 1-9 6-20 13-38 14-40 3-9z" fill="#BDDFCD"/>
<path transform="translate(1044,439)" d="m0 0 4 3 5 3 5 8v11l-6 20-15 43-14 36-5 2 5 1v1l-15 2-4-4 1-10 12-36 15-43 9-26z" fill="#BDDFCD"/>
<path transform="translate(1129,441)" d="m0 0 2 4h2l1-3 7 9 1 2v10l-8 27-11 32-12 33-2 2v3h-2v2l-8 7-11 7-5 1 3-12 9-26 21-61z" fill="#BDDFCD"/>
<path transform="translate(1214,459)" d="m0 0h7l5 4 2 4 1 12h-5l-8 11-16 47-6 18-3 8-2 2h-9-3l-2-3v-12l6-21 11-34 7-21 6-9 6-5zm10 7v2h2v-2zm0 3v5l2-1-1-4zm-46 93 1 2z" fill="#BDDFCD"/>
<path transform="translate(1789,454)" d="m0 0 5 4 7 14 1 5v14l-4 15-15 42-6 14-3 3-7 1 3 2h-7l-5-2-2-2 1-7 11-32 10-28 6-18 4-23z" fill="#BDDFCD"/>
<path transform="translate(1384,459)" d="m0 0h6l8 5 1 4v10h-1l-1-7-3 9-6 9-8 20-10 27-5 15-4 3-9-1-2-3-2 2-1-13 12-36 10-29 7-10 5-4z" fill="#BDDFCD"/>
<path transform="translate(910,370)" d="m0 0h12l9 4 7 8 2 6-1 1-15 2-10 4-5 5-5 8-4 10-1 4v9h-2v-2l-5-1-7-9-2-7v-14l4-11 6-9 10-6z" fill="#BDDFCD"/>
<path transform="translate(1744,348)" d="m0 0 9 6 5 10v7l-6 21-8 20-1 3 2 2-19 3h-5l1-6 19-57z" fill="#BDDFCD"/>
<path transform="translate(988,370)" d="m0 0 5 5 6 9 4 13v10l-4 11-8 7-9 3h-8l-9-5-6-8-2-7h8l10-4 7-6 4-10 1-16z" fill="#BDDFCD"/>
<path transform="translate(999,645)" d="m0 0h4l-2 9-5 13-7 12-7 4-4 1h-10l-6-4-1-9 4-9 7-6 17-8z" fill="#BDDFCD"/>
<path transform="translate(1563,456)" d="m0 0h9l6 3 3 4v11l-6 3h-2v2l-8 8-2 6v1h-8l-9-1-3-3 1-7 5-13 7-10z" fill="#BDDFCD"/>
<path transform="translate(604,496)" d="m0 0 3 1h-3z" fill="#BDDFCD"/>
<path transform="translate(561,452)" d="m0 0" fill="#BDDFCD"/>
<path transform="translate(603,495)" d="m0 0" fill="#BDDFCD"/>
<path transform="translate(63,406)" d="m0 0" fill="#BDDFCD"/>
</svg>
